# xmcd
#
# Track frame offsets: 
#        150
#        15293
#        29669
#        44219
#        58144
#        72952
#        86576
#        103607
#        117726
#        134968
#        149370
#        167522
#        183098
#        197980
#        214607
#        227777
#        244475
#        260376
#        277979
#        291732
#        306690
#
# Disc length: 4252 seconds
#
# Revision: 0
# Processed by: cddbd v1.5.2PL0 Copyright (c) Steve Scherf et al.
# Submitted via: ExactAudioCopy v1.1
#
DISCID=59109a15
DTITLE=Various Artist - De Foute CD 2018 - CD 3
DYEAR=2018
DGENRE=Pop
TTITLE0=Steps - 5, 6, 7, 8
TTITLE1=Cartoons - Doodah
TTITLE2=Aqua - Barbie Girl
TTITLE3=Westlife - Uptown Girl
TTITLE4=Five - Keep On Movin'
TTITLE5=Ruslana - Wild Dances
TTITLE6=Shaggy - It Wasn't Me
TTITLE7=Jennifer Lopez - Jenny From The Block
TTITLE8=Ultimate Kaos - Casanova
TTITLE9=Brainpower - Dansplaat
TTITLE10=Bloodhound Gang - The Bad Touch
TTITLE11=Sisqo - Thong Song
TTITLE12=Mousse T. Vs. Hot 'n' Juicy - Horny '98
TTITLE13=Danzel - Pump It Up
TTITLE14=Xandee - 1 Life
TTITLE15=A*Teens - Mamma Mia
TTITLE16=Petra - Laat Je Gaan
TTITLE17=Rocco and The Carnations - Marina (Remix '89)
TTITLE18=Plaza - O-Oh
TTITLE19=Katastroof - Zuipe
TTITLE20=Henkie - Lief Klein Konijntje
EXTD=
EXTT0=
EXTT1=
EXTT2=
EXTT3=
EXTT4=
EXTT5=
EXTT6=
EXTT7=
EXTT8=
EXTT9=
EXTT10=
EXTT11=
EXTT12=
EXTT13=
EXTT14=
EXTT15=
EXTT16=
EXTT17=
EXTT18=
EXTT19=
EXTT20=
PLAYORDER=
